<?xml version="1.0" standalone="no"?><!DOCTYPE svg PUBLIC "-//W3C//DTD SVG 1.1//EN" "http://www.w3.org/Graphics/SVG/1.1/DTD/svg11.dtd"><svg class="icon" width="200px" height="200.00px" viewBox="0 0 1024 1024" version="1.1" xmlns="http://www.w3.org/2000/svg"><path d="M512 512m-512 0a512 512 0 1 0 1024 0 512 512 0 1 0-1024 0Z" fill="#FF368B" /><path d="M782.5 317.7c-66.5-65.9-173.7-65.9-240.2 0L512 347.9l-30-30.3c-66.2-66.4-173.7-66.5-240.1-0.4s-66.5 173.7-0.4 240.1l60 60L481.4 797c16.6 16.5 43.4 16.5 60 0l179.9-179.7 61-60c66.3-66.2 66.3-173.4 0.2-239.6z" fill="#FFFFFF" opacity=".9" /><path d="M542 317.7l-30 30.2-30-30.3c-66.2-66.4-173.7-66.5-240.1-0.4s-66.5 173.7-0.4 240.1l60 60 70.8 69.1c113.9-29 212-101.3 273.4-201.6 39.6-63.1 63.5-134.7 69.6-209-60.9-19.8-128-3.6-173.3 41.9z" fill="#FFFFFF" /></svg>