<?xml version="1.0" standalone="no"?><!DOCTYPE svg PUBLIC "-//W3C//DTD SVG 1.1//EN" "http://www.w3.org/Graphics/SVG/1.1/DTD/svg11.dtd"><svg class="icon" width="200px" height="182.21px" viewBox="0 0 1124 1024" version="1.1" xmlns="http://www.w3.org/2000/svg"><path d="M112.343948 779.299848L83.350312 849.457288l-9.562275 24.135796c-7.158922 18.715469-12.57925 34.260558-16.465522 47.709105a162.814351 162.814351 0 0 0-6.647571 34.465098c-1.534055 24.289201 4.346489 45.868239 29.914069 59.828138 22.959687 12.425844 39.374074 10.073627 77.520904-2.914704l20.454064-7.210058 25.669851-9.869086 97.668156-39.578614 19.942713-7.670274 17.897306-6.34076 9.204329-2.812434c60.390625 20.70974 124.769792 31.499259 190.734149 31.499259 295.305553 0 536.919186-215.943783 536.919187-485.374945C1076.599672 215.943783 835.037173 0 539.680485 0 244.323797 0 2.761299 215.943783 2.761299 485.323809c0 108.048594 39.118398 210.472321 109.531514 293.976039z m162.865486 77.367498l-5.880543 2.249947-94.957993 38.555911 33.902611-82.73669 5.113516-13.448547c1.48292-4.039678 2.659028-7.568004 3.630597-10.840654 1.534055-4.908975 2.556758-9.255464 3.221515-13.857629l0.511351-4.551029-0.051135-8.948653-0.767027-6.391895c-1.022703-6.289625-3.323785-9.817951-13.499683-25.567581C141.133043 662.507141 105.03162 576.29326 105.03162 485.272674 105.03162 275.158299 298.475933 102.270321 539.680485 102.270321c241.255688 0 434.648865 172.836843 434.648865 383.053488s-193.393177 383.104623-434.648865 383.104624a485.784026 485.784026 0 0 1-148.752182-23.010823l-17.53936-6.085084c-20.760875-7.568004-36.510505-4.75557-70.413116 7.158923l-27.766393 10.175897z" fill="#2CB18D" /><path d="M332.378544 485.784026m-76.702741 0a76.702741 76.702741 0 1 0 153.405482 0 76.702741 76.702741 0 1 0-153.405482 0Z" fill="#FFBB20" /><path d="M536.919186 485.784026m-76.70274 0a76.702741 76.702741 0 1 0 153.405481 0 76.702741 76.702741 0 1 0-153.405481 0Z" fill="#FFBB20" /><path d="M741.459829 485.784026m-76.702741 0a76.702741 76.702741 0 1 0 153.405482 0 76.702741 76.702741 0 1 0-153.405482 0Z" fill="#FFBB20" /></svg>